<svg width="406" height="177" viewBox="0 0 406 177" fill="none" xmlns="http://www.w3.org/2000/svg">
<mask id="path-1-inside-1_2685_3125" fill="white">
<path d="M0 0H38.6045V38.6045H0V0Z"/>
</mask>
<path d="M0 0V-0.80426H-0.80426V0H0ZM38.6045 0H39.4088V-0.80426H38.6045V0ZM0 0.80426H38.6045V-0.80426H0V0.80426ZM37.8002 0V38.6045H39.4088V0H37.8002ZM0.80426 38.6045V0H-0.80426V38.6045H0.80426Z" fill="#0BC1C0" mask="url(#path-1-inside-1_2685_3125)"/>
<mask id="path-3-inside-2_2685_3125" fill="white">
<path d="M38.6055 -0.000152588H137.53V38.6044H38.6055V-0.000152588Z"/>
</mask>
<path d="M38.6055 0.804108H137.53V-0.804413H38.6055V0.804108Z" fill="#0BC1C0" mask="url(#path-3-inside-2_2685_3125)"/>
<mask id="path-5-inside-3_2685_3125" fill="white">
<path d="M137.529 -0.000152588H157.636V38.6044H137.529V-0.000152588Z"/>
</mask>
<path d="M137.529 -0.000152588V-0.804413H136.725V-0.000152588H137.529ZM157.636 -0.000152588H158.44V-0.804413H157.636V-0.000152588ZM137.529 0.804108H157.636V-0.804413H137.529V0.804108ZM156.832 -0.000152588V38.6044H158.44V-0.000152588H156.832ZM138.334 38.6044V-0.000152588H136.725V38.6044H138.334Z" fill="#0BC1C0" mask="url(#path-5-inside-3_2685_3125)"/>
<g clip-path="url(#clip0_2685_3125)">
<path d="M142.039 17.6239C142.039 15.8585 142.681 14.2536 143.751 12.9696C142.043 13.628 140.62 14.8636 139.729 16.4619C138.837 18.0602 138.533 19.9202 138.87 21.7192C139.207 23.5181 140.163 25.1422 141.573 26.3095C142.982 27.4769 144.756 28.1137 146.586 28.1095C149.957 28.1095 152.846 25.9696 153.969 22.9737C152.685 24.0972 151.027 24.7391 149.261 24.7391C145.249 24.7926 142.039 21.5828 142.039 17.6239Z" fill="#D9D9D9"/>
<path d="M149.209 10.4553C147.015 10.4553 145.089 11.4182 143.752 12.9697C144.939 12.5109 146.219 12.3469 147.483 12.4918C148.747 12.6367 149.957 13.0862 151.01 13.8017C152.062 14.5172 152.925 15.4773 153.524 16.5996C154.124 17.722 154.442 18.973 154.451 20.2453C154.451 21.2083 154.291 22.1178 153.97 22.9202C155.468 21.6363 156.431 19.7104 156.431 17.5705C156.377 13.6651 153.168 10.4553 149.209 10.4553Z" fill="#D9D9D9"/>
</g>
<mask id="path-9-inside-4_2685_3125" fill="white">
<path d="M157.635 -0.000152588H366.743V38.6044H157.635V-0.000152588Z"/>
</mask>
<path d="M366.743 -0.000152588H367.547V-0.804413H366.743V-0.000152588ZM157.635 0.804108H366.743V-0.804413H157.635V0.804108ZM365.938 -0.000152588V38.6044H367.547V-0.000152588H365.938Z" fill="#0BC1C0" mask="url(#path-9-inside-4_2685_3125)"/>
<mask id="path-11-inside-5_2685_3125" fill="white">
<path d="M366.742 -0.000152588H405.347V38.6044H366.742V-0.000152588Z"/>
</mask>
<path d="M405.347 -0.000152588H406.151V-0.804413H405.347V-0.000152588ZM366.742 0.804108H405.347V-0.804413H366.742V0.804108ZM404.542 -0.000152588V38.6044H406.151V-0.000152588H404.542Z" fill="#0BC1C0" mask="url(#path-11-inside-5_2685_3125)"/>
<rect x="0.40213" y="39.0065" width="37.8002" height="98.924" stroke="#0BC1C0" stroke-width="0.80426"/>
<mask id="path-14-inside-6_2685_3125" fill="white">
<path d="M38.6055 38.6043H138.334V138.333H38.6055V38.6043Z"/>
</mask>
<path d="M138.334 38.6043H139.138V37.8001H138.334V38.6043ZM138.334 138.333V139.137H139.138V138.333H138.334ZM38.6055 39.4086H138.334V37.8001H38.6055V39.4086ZM137.53 38.6043V138.333H139.138V38.6043H137.53ZM138.334 137.528H38.6055V139.137H138.334V137.528Z" fill="#0BC1C0" mask="url(#path-14-inside-6_2685_3125)"/>
<g clip-path="url(#clip1_2685_3125)">
<path d="M57.2215 79.0097C57.2215 69.0592 60.8399 60.0132 66.8706 52.7764C57.2455 56.487 49.2239 63.4513 44.1984 72.4599C39.1729 81.4685 37.461 91.9526 39.3599 102.092C41.2588 112.231 46.6485 121.385 54.5933 127.965C62.5381 134.544 72.5363 138.134 82.8518 138.11C101.848 138.11 118.131 126.049 124.463 109.163C117.227 115.495 107.879 119.114 97.9284 119.114C75.3135 119.415 57.2215 101.323 57.2215 79.0097Z" fill="#0BC1C0"/>
<path d="M97.6274 38.6043C85.2646 38.6043 74.4094 44.0319 66.8711 52.7764C73.5604 50.1904 80.7772 49.2663 87.9022 50.0831C95.0272 50.9 101.848 53.4335 107.778 57.4662C113.709 61.4989 118.572 66.9104 121.951 73.2362C125.33 79.5621 127.123 86.6133 127.178 93.7848C127.178 99.2124 126.273 104.338 124.464 108.861C132.907 101.625 138.334 90.7695 138.334 78.7082C138.033 56.6963 119.941 38.6043 97.6274 38.6043Z" fill="#0BC1C0"/>
</g>
<mask id="path-18-inside-7_2685_3125" fill="white">
<path d="M138.332 38.6043H157.634V138.333H138.332V38.6043Z"/>
</mask>
<path d="M157.634 38.6043H158.439V37.8001H157.634V38.6043ZM157.634 138.333V139.137H158.439V138.333H157.634ZM138.332 39.4086H157.634V37.8001H138.332V39.4086ZM156.83 38.6043V138.333H158.439V38.6043H156.83ZM157.634 137.528H138.332V139.137H157.634V137.528Z" fill="#0BC1C0" mask="url(#path-18-inside-7_2685_3125)"/>
<mask id="path-20-inside-8_2685_3125" fill="white">
<path d="M157.635 38.6043H366.743V138.333H157.635V38.6043Z"/>
</mask>
<path d="M366.743 38.6043H367.547V37.8001H366.743V38.6043ZM366.743 138.333V139.137H367.547V138.333H366.743ZM157.635 39.4086H366.743V37.8001H157.635V39.4086ZM365.938 38.6043V138.333H367.547V38.6043H365.938ZM366.743 137.528H157.635V139.137H366.743V137.528Z" fill="#0BC1C0" mask="url(#path-20-inside-8_2685_3125)"/>
<path d="M200.888 118.16C212.696 113.315 220.266 101.81 219.963 88.7902C219.963 80.3123 216.632 72.44 210.879 66.3844C205.127 60.3288 196.951 56.9982 188.776 57.301C176.06 57.301 164.857 64.8705 160.012 76.9817C155.168 88.7902 157.893 102.415 166.673 111.499C175.757 120.582 189.079 123.307 200.888 118.16ZM188.776 106.049C179.996 106.049 173.032 99.0847 173.032 89.0929C173.032 79.1012 179.996 72.1372 188.776 72.1372C197.557 72.1372 204.521 79.1012 204.521 89.0929C204.521 99.0847 197.557 106.049 188.776 106.049ZM351.672 119.068C356.492 117.025 360.465 113.39 362.926 108.771C365.388 104.151 366.189 98.8262 365.197 93.6864C364.204 88.5466 361.478 83.9032 357.473 80.5321C353.469 77.161 348.428 75.2664 343.194 75.165C334.111 75.165 325.936 80.6151 322.303 89.3957C318.972 97.8736 320.789 107.865 327.147 114.224C333.808 120.582 343.194 122.399 351.672 119.068ZM342.892 107.865C337.442 107.865 333.203 103.626 333.203 97.8736C333.203 91.818 337.442 87.8818 342.892 87.8818C348.342 87.8818 352.581 92.1207 352.581 97.8736C352.581 103.626 348.342 107.865 342.892 107.865ZM242.671 55.7871V119.977H226.018V55.7871H242.671ZM267.499 55.7871V119.977H251.755V55.7871H267.499ZM289.602 108.774L271.738 74.8623H288.391L297.777 93.3319L307.164 74.8623H323.514L290.813 135.116H274.766L289.602 108.774Z" fill="#1B1921"/>
<mask id="path-23-inside-9_2685_3125" fill="white">
<path d="M366.742 38.6043H405.347V138.333H366.742V38.6043Z"/>
</mask>
<path d="M405.347 38.6043H406.151V37.8001H405.347V38.6043ZM405.347 138.333V139.137H406.151V138.333H405.347ZM366.742 39.4086H405.347V37.8001H366.742V39.4086ZM404.542 38.6043V138.333H406.151V38.6043H404.542ZM405.347 137.528H366.742V139.137H405.347V137.528Z" fill="#0BC1C0" mask="url(#path-23-inside-9_2685_3125)"/>
<mask id="path-25-inside-10_2685_3125" fill="white">
<path d="M0 138.333H38.6045V176.937H0V138.333Z"/>
</mask>
<path d="M38.6045 176.937V177.741H39.4088V176.937H38.6045ZM0 176.937H-0.80426V177.741H0V176.937ZM37.8002 138.333V176.937H39.4088V138.333H37.8002ZM38.6045 176.133H0V177.741H38.6045V176.133ZM0.80426 176.937V138.333H-0.80426V176.937H0.80426Z" fill="#0BC1C0" mask="url(#path-25-inside-10_2685_3125)"/>
<g clip-path="url(#clip2_2685_3125)">
<path d="M4.25767 155.88C4.25767 154.035 4.92882 152.357 6.04741 151.015C4.26212 151.703 2.77423 152.995 1.84209 154.665C0.909946 156.336 0.592414 158.281 0.944624 160.162C1.29684 162.042 2.29655 163.74 3.77018 164.961C5.24381 166.181 7.09831 166.847 9.01167 166.843C12.5352 166.843 15.5554 164.605 16.7299 161.473C15.3876 162.648 13.6538 163.319 11.8081 163.319C7.61343 163.375 4.25767 160.019 4.25767 155.88Z" fill="#D9D9D9"/>
<path d="M11.7517 148.386C9.45857 148.386 7.44511 149.393 6.04688 151.015C7.28763 150.535 8.62623 150.363 9.94781 150.515C11.2694 150.667 12.5345 151.136 13.6345 151.884C14.7345 152.632 15.6366 153.636 16.2633 154.81C16.89 155.983 17.2227 157.291 17.2328 158.621C17.2328 159.628 17.065 160.578 16.7294 161.417C18.2954 160.075 19.3021 158.062 19.3021 155.824C19.2462 151.742 15.8905 148.386 11.7517 148.386Z" fill="#D9D9D9"/>
</g>
<g clip-path="url(#clip3_2685_3125)">
<path d="M22.7557 155.88C22.7557 154.035 23.4269 152.357 24.5455 151.015C22.7602 151.703 21.2723 152.995 20.3401 154.665C19.408 156.336 19.0905 158.281 19.4427 160.162C19.7949 162.042 20.7946 163.74 22.2682 164.961C23.7419 166.181 25.5964 166.847 27.5097 166.843C31.0333 166.843 34.0535 164.605 35.228 161.473C33.8857 162.648 32.1519 163.319 30.3062 163.319C26.1115 163.375 22.7557 160.019 22.7557 155.88Z" fill="#D9D9D9"/>
<path d="M30.2517 148.386C27.9586 148.386 25.9451 149.393 24.5469 151.015C25.7876 150.535 27.1262 150.363 28.4478 150.515C29.7694 150.667 31.0345 151.136 32.1345 151.884C33.2345 152.632 34.1366 153.636 34.7633 154.81C35.39 155.983 35.7227 157.291 35.7328 158.621C35.7328 159.628 35.565 160.578 35.2294 161.417C36.7954 160.075 37.8021 158.062 37.8021 155.824C37.7462 151.742 34.3905 148.386 30.2517 148.386Z" fill="#D9D9D9"/>
</g>
<mask id="path-31-inside-11_2685_3125" fill="white">
<path d="M38.6055 138.333H138.334V176.937H38.6055V138.333Z"/>
</mask>
<path d="M138.334 176.937V177.741H139.138V176.937H138.334ZM137.53 138.333V176.937H139.138V138.333H137.53ZM138.334 176.133H38.6055V177.741H138.334V176.133Z" fill="#0BC1C0" mask="url(#path-31-inside-11_2685_3125)"/>
<mask id="path-33-inside-12_2685_3125" fill="white">
<path d="M138.332 138.333H157.634V176.937H138.332V138.333Z"/>
</mask>
<path d="M157.634 176.937V177.741H158.439V176.937H157.634ZM156.83 138.333V176.937H158.439V138.333H156.83ZM157.634 176.133H138.332V177.741H157.634V176.133Z" fill="#0BC1C0" mask="url(#path-33-inside-12_2685_3125)"/>
<mask id="path-35-inside-13_2685_3125" fill="white">
<path d="M157.635 138.333H366.743V176.937H157.635V138.333Z"/>
</mask>
<path d="M366.743 176.937V177.741H367.547V176.937H366.743ZM365.938 138.333V176.937H367.547V138.333H365.938ZM366.743 176.133H157.635V177.741H366.743V176.133Z" fill="#0BC1C0" mask="url(#path-35-inside-13_2685_3125)"/>
<mask id="path-37-inside-14_2685_3125" fill="white">
<path d="M366.742 138.333H405.347V176.937H366.742V138.333Z"/>
</mask>
<path d="M405.347 176.937V177.741H406.151V176.937H405.347ZM404.542 138.333V176.937H406.151V138.333H404.542ZM405.347 176.133H366.742V177.741H405.347V176.133Z" fill="#0BC1C0" mask="url(#path-37-inside-14_2685_3125)"/>
<defs>
<clipPath id="clip0_2685_3125">
<rect width="17.6937" height="17.6937" fill="white" transform="translate(138.736 10.4552)"/>
</clipPath>
<clipPath id="clip1_2685_3125">
<rect width="99.7283" height="99.7283" fill="white" transform="translate(38.6055 38.6043)"/>
</clipPath>
<clipPath id="clip2_2685_3125">
<rect width="18.498" height="18.498" fill="white" transform="translate(0.804688 148.386)"/>
</clipPath>
<clipPath id="clip3_2685_3125">
<rect width="18.498" height="18.498" fill="white" transform="translate(19.3027 148.386)"/>
</clipPath>
</defs>
</svg>
